<svg xmlns="http://www.w3.org/2000/svg" version="1.1" xmlns:xlink="http://www.w3.org/1999/xlink" width="512" height="512" x="0" y="0" viewBox="0 0 24 24" style="enable-background:new 0 0 512 512" xml:space="preserve" class=""><g><path d="M11 0H3a3 3 0 0 0-3 3v21h14V3a3 3 0 0 0-3-3zM6 19H3v-2h3zm0-4H3v-2h3zm0-4H3V9h3zm0-4H3V5h3zm5 12H8v-2h3zm0-4H8v-2h3zm0-4H8V9h3zm0-4H8V5h3zm10-2h-5v19h8V8a3 3 0 0 0-3-3zm0 14h-2v-2h2zm0-4h-2v-2h2zm0-4h-2V9h2z" fill="#ffffff" opacity="1" data-original="#000000"></path></g></svg>