<svg xmlns="http://www.w3.org/2000/svg" version="1.1" xmlns:xlink="http://www.w3.org/1999/xlink" width="512" height="512" x="0" y="0" viewBox="0 0 24 24" style="enable-background:new 0 0 512 512" xml:space="preserve"><g><path d="M9.445 11.774c3.497-.021 5.303-1.83 5.367-5.395C14.753 2.933 12.847 1 9.439 1 5.945 1 4.071 2.987 4.071 6.396c0 3.498 1.92 5.357 5.374 5.377ZM9.439 2c2.853.019 4.323 1.498 4.373 4.378-.055 2.982-1.444 4.379-4.367 4.396-2.927-.017-4.316-1.411-4.374-4.387C5.126 3.453 6.557 2.018 9.439 2ZM9.439 14.294c-5.256.033-8.084 2.868-8.179 8.197a.5.5 0 0 0 .491.509h.009a.5.5 0 0 0 .5-.491c.086-4.825 2.436-7.185 7.179-7.215 4.685.03 7.102 2.458 7.184 7.215a.494.494 0 0 0 .509.491.5.5 0 0 0 .491-.509c-.091-5.252-2.995-8.163-8.184-8.197ZM22.239 12.237h-2.407v-2.4a.5.5 0 0 0-1 0v2.4h-2.406a.5.5 0 0 0 0 1h2.406v2.399a.5.5 0 0 0 1 0v-2.399h2.407a.5.5 0 0 0 0-1Z" fill="#000000" opacity="1" data-original="#000000"></path></g></svg>