<svg xmlns="http://www.w3.org/2000/svg" version="1.1" xmlns:xlink="http://www.w3.org/1999/xlink" width="512" height="512" x="0" y="0" viewBox="0 0 24 24" style="enable-background:new 0 0 512 512" xml:space="preserve"><g><path d="M23.312 9.733c-.839-1.252-2.18-2.926-4.046-4.292l3.588-3.588a.5.5 0 0 0-.707-.707l-3.725 3.725c-1.743-1.089-3.877-1.872-6.421-1.872C6.082 3 2.373 7.219.688 9.733a4.06 4.06 0 0 0 0 4.533c.839 1.252 2.18 2.926 4.046 4.292l-3.588 3.588a.5.5 0 0 0 .708.707l3.725-3.725C7.322 20.217 9.456 21 12 21c5.918 0 9.627-4.219 11.312-6.733a4.06 4.06 0 0 0 0-4.533ZM1.52 13.71a3.062 3.062 0 0 1 0-3.42C3.093 7.941 6.547 4 12 4c2.23 0 4.12.664 5.689 1.604l-2.543 2.543c-.862-.705-1.948-1.146-3.146-1.146-2.757 0-5 2.243-5 5 0 1.198.441 2.284 1.146 3.146l-2.692 2.692c-1.818-1.297-3.126-2.922-3.935-4.129Zm7.334.73A3.956 3.956 0 0 1 8.001 12c0-2.206 1.794-4 4-4 .922 0 1.762.327 2.44.853L8.854 14.44Zm6.294-4.88c.527.677.853 1.517.853 2.44 0 2.206-1.794 4-4 4a3.967 3.967 0 0 1-2.44-.853l5.587-5.587Zm7.334 4.15C20.909 16.059 17.455 20 12.002 20c-2.23 0-4.12-.664-5.689-1.604l2.543-2.543c.862.705 1.948 1.146 3.146 1.146 2.757 0 5-2.243 5-5 0-1.198-.441-2.284-1.146-3.146l2.692-2.692c1.818 1.297 3.126 2.922 3.935 4.129a3.062 3.062 0 0 1 0 3.42Z" fill="#000000" opacity="1" data-original="#000000"></path></g></svg>