<svg xmlns="http://www.w3.org/2000/svg" version="1.1" xmlns:xlink="http://www.w3.org/1999/xlink" width="512" height="512" x="0" y="0" viewBox="0 0 24 24" style="enable-background:new 0 0 512 512" xml:space="preserve" class=""><g><path d="M23.312 9.733C21.628 7.218 17.918 3 12 3S2.373 7.219.688 9.733a4.06 4.06 0 0 0 0 4.533C2.372 16.781 6.082 20.999 12 20.999s9.627-4.219 11.312-6.733a4.06 4.06 0 0 0 0-4.533Zm-.831 3.977C20.908 16.059 17.454 20 12.001 20S3.093 16.059 1.52 13.71a3.062 3.062 0 0 1 0-3.42C3.093 7.941 6.547 4 12 4s8.907 3.941 10.48 6.29a3.062 3.062 0 0 1 0 3.42ZM12 7c-2.757 0-5 2.243-5 5s2.243 5 5 5 5-2.243 5-5-2.243-5-5-5Zm0 9c-2.206 0-4-1.794-4-4s1.794-4 4-4 4 1.794 4 4-1.794 4-4 4Z" fill="#000000" opacity="1" data-original="#000000" class=""></path></g></svg>