<svg xmlns="http://www.w3.org/2000/svg" version="1.1" xmlns:xlink="http://www.w3.org/1999/xlink" width="512" height="512" x="0" y="0" viewBox="0 0 24 24" style="enable-background:new 0 0 512 512" xml:space="preserve" class=""><g><path d="M6 18a1 1 0 0 1-.705-1.71l6.001-5.964a1 1 0 0 1 1.41 0l5.999 5.964a.999.999 0 1 1-1.41 1.418l-5.294-5.263-5.296 5.264A.997.997 0 0 1 6 18Zm12-6.262a.992.992 0 0 1-.702-.289l-3.93-3.88c-.738-.737-2.003-.733-2.731-.004l-3.935 3.884a.999.999 0 1 1-1.404-1.423l3.93-3.88C9.964 5.408 10.951 5 12 5s2.036.409 2.777 1.151l3.925 3.875A1 1 0 0 1 18 11.737Z" fill="#a81616" opacity="1" data-original="#000000"></path></g></svg>