<svg xmlns="http://www.w3.org/2000/svg" version="1.1" xmlns:xlink="http://www.w3.org/1999/xlink" width="512" height="512" x="0" y="0" viewBox="0 0 512 512" style="enable-background:new 0 0 512 512" xml:space="preserve" class=""><g><path fill="#10779d" fill-rule="evenodd" d="M256 511.44c140.724 0 255.5-114.655 255.5-255.379S396.724.56 256 .56.5 115.336.5 256.06 115.276 511.44 256 511.44z" clip-rule="evenodd" opacity="1" data-original="#5d6163"></path><path fill="#ffffff" d="M178.474 176.509C178.474 133.771 213.252 99 256 99c42.739 0 77.509 34.771 77.509 77.509s-34.77 77.509-77.509 77.509c-42.748 0-77.526-34.77-77.526-77.509zM317.646 287.1H194.302c-41.799 0-75.805 34.006-75.805 75.806v40.28c0 5.42 4.394 9.814 9.814 9.814H383.69c5.42 0 9.814-4.394 9.814-9.814v-40.228c-.001-41.828-34.03-75.858-75.858-75.858z" opacity="1" data-original="#ffffff"></path></g></svg>