<svg xmlns="http://www.w3.org/2000/svg" version="1.1" xmlns:xlink="http://www.w3.org/1999/xlink" width="512" height="512" x="0" y="0" viewBox="0 0 24 24" style="enable-background:new 0 0 512 512" xml:space="preserve" class=""><g><path d="M1 23V2.5C1 1.673 1.673 1 2.5 1H12v7h7v.587c.347.14.679.306 1 .492V7.293L12.707 0H2.5A2.503 2.503 0 0 0 0 2.5V24h16a7.956 7.956 0 0 1-3.87-1H1ZM13 1.707 18.293 7H13V1.707Zm10.995 21.581-3.417-3.417a5.97 5.97 0 0 0 1.423-3.87c0-3.309-2.691-6-6-6s-6 2.691-6 6 2.691 6 6 6a5.965 5.965 0 0 0 3.87-1.423l3.417 3.417.707-.707ZM16 21c-2.757 0-5-2.243-5-5s2.243-5 5-5 5 2.243 5 5-2.243 5-5 5Zm3.641-6.238-3.457 3.399a1.165 1.165 0 0 1-1.647-.003l-1.852-1.794.696-.718 1.856 1.799a.17.17 0 0 0 .241.005l3.459-3.402.701.713ZM9.76 11H4v-1h6.721c-.348.306-.67.639-.96 1Zm-1.498 3a7.851 7.851 0 0 0-.193 1H4v-1h4.262ZM4 18h4.262c.088.342.194.677.325 1H4v-1Z" fill="#b71616" opacity="1" data-original="#000000"></path></g></svg>