<svg xmlns="http://www.w3.org/2000/svg" version="1.1" xmlns:xlink="http://www.w3.org/1999/xlink" width="512" height="512" x="0" y="0" viewBox="0 0 24 24" style="enable-background:new 0 0 512 512" xml:space="preserve" class=""><g><path d="M16.84 13.133a.5.5 0 0 1 .027.707l-4.086 4.414C12.296 18.74 11.668 19 11 19s-1.296-.26-1.768-.732l-2.079-1.993a.5.5 0 0 1 .692-.722l2.086 2c.581.581 1.562.574 2.128.007l4.073-4.4a.499.499 0 0 1 .707-.027ZM22 9.985V19.5c0 2.481-2.019 4.5-4.5 4.5h-11A4.505 4.505 0 0 1 2 19.5v-15C2 2.019 4.019 0 6.5 0h5.515c1.736 0 3.369.676 4.596 1.904l3.485 3.485A6.457 6.457 0 0 1 22 9.985ZM15.904 2.61c-.55-.55-1.2-.959-1.904-1.231V6.5c0 .827.673 1.5 1.5 1.5h5.121a5.492 5.492 0 0 0-1.231-1.904l-3.485-3.485ZM21 9.985c0-.335-.038-.663-.096-.985H15.5A2.503 2.503 0 0 1 13 6.5V1.096A5.564 5.564 0 0 0 12.015 1H6.5C4.57 1 3 2.57 3 4.5v15C3 21.43 4.57 23 6.5 23h11c1.93 0 3.5-1.57 3.5-3.5V9.985Z" fill="#000000" opacity="1" data-original="#000000" class=""></path></g></svg>