<svg xmlns="http://www.w3.org/2000/svg" version="1.1" xmlns:xlink="http://www.w3.org/1999/xlink" width="512" height="512" x="0" y="0" viewBox="0 0 24 24" style="enable-background:new 0 0 512 512" xml:space="preserve" class=""><g><path d="M12 6a3 3 0 0 0-3 3v12a3 3 0 0 0 6 0V9a3 3 0 0 0-3-3Zm1 15a1 1 0 0 1-2 0V9a1 1 0 0 1 2 0ZM21 0a3 3 0 0 0-3 3v18a3 3 0 0 0 6 0V3a3 3 0 0 0-3-3Zm1 21a1 1 0 0 1-2 0V3a1 1 0 0 1 2 0ZM3 12a3 3 0 0 0-3 3v6a3 3 0 0 0 6 0v-6a3 3 0 0 0-3-3Z" fill="#0acc0a" opacity="1" data-original="#000000"></path></g></svg>