<svg xmlns="http://www.w3.org/2000/svg" version="1.1" xmlns:xlink="http://www.w3.org/1999/xlink" width="512" height="512" x="0" y="0" viewBox="0 0 24 24" style="enable-background:new 0 0 512 512" xml:space="preserve" class=""><g><path d="M20 11.5v8c0 2.481-2.019 4.5-4.5 4.5h-11A4.505 4.505 0 0 1 0 19.5v-15C0 2.019 2.019 0 4.5 0h11c.38 0 .759.048 1.124.142a.5.5 0 1 1-.248.969 3.534 3.534 0 0 0-.876-.11h-11c-1.93 0-3.5 1.57-3.5 3.5v15c0 1.93 1.57 3.5 3.5 3.5h11c1.93 0 3.5-1.57 3.5-3.5V11.5a.5.5 0 0 1 1 0zM11.5 18h4a.5.5 0 0 0 0-1h-4a.5.5 0 0 0 0 1zM24 2.5c0 .668-.26 1.296-.732 1.768l-6.707 6.707A3.474 3.474 0 0 1 14.086 12H12.5a.5.5 0 0 1-.5-.5V9.914c0-.921.374-1.823 1.025-2.475L19.732.732A2.502 2.502 0 0 1 23.999 2.5zm-1 0a1.501 1.501 0 0 0-2.56-1.061l-6.707 6.707a2.514 2.514 0 0 0-.732 1.768V11h1.086c.668 0 1.296-.26 1.768-.732l6.707-6.707a1.49 1.49 0 0 0 .439-1.061zM9.146 15.146l-2.589 2.589a.9.9 0 0 1-1.242.034l-1.471-1.403a.498.498 0 1 0-.689.723l1.478 1.41a1.899 1.899 0 0 0 2.632-.057l2.589-2.589a.5.5 0 0 0-.707-.707zm.707-5a.5.5 0 0 0-.707 0l-2.589 2.589a.9.9 0 0 1-1.242.034l-1.471-1.403a.5.5 0 0 0-.689.724l1.478 1.41a1.899 1.899 0 0 0 2.632-.057l2.589-2.589a.5.5 0 0 0 0-.707zm0-5a.5.5 0 0 0-.707 0L6.557 7.735a.898.898 0 0 1-1.241.034L3.845 6.365a.5.5 0 0 0-.691.724L4.633 8.5a1.898 1.898 0 0 0 2.632-.058l2.589-2.589a.5.5 0 0 0 0-.707z" fill="#10779d" opacity="1" data-original="#000000"></path></g></svg>