<svg xmlns="http://www.w3.org/2000/svg" version="1.1" xmlns:xlink="http://www.w3.org/1999/xlink" width="512" height="512" x="0" y="0" viewBox="0 0 24 24" style="enable-background:new 0 0 512 512" xml:space="preserve" class=""><g><path d="M12 24C5.383 24 0 18.617 0 12S5.383 0 12 0s12 5.383 12 12-5.383 12-12 12Zm0-23C5.935 1 1 5.935 1 12s4.935 11 11 11 11-4.935 11-11S18.065 1 12 1Z" fill="#5e5e5e" opacity="1" data-original="#000000" class=""></path><path d="M8 15.5a.5.5 0 0 1-.277-.916L12 11.732V5.5a.5.5 0 0 1 1 0V12a.501.501 0 0 1-.223.416l-4.5 3A.497.497 0 0 1 8 15.5Z" fill="#5e5e5e" opacity="1" data-original="#000000" class=""></path></g></svg>